<svg width="16" height="17" viewBox="0 0 16 17" fill="none" xmlns="http://www.w3.org/2000/svg">
<path d="M3.18677 7.77989C3.29061 7.26451 3.53676 6.93952 3.55215 6.92029C3.65022 6.79336 3.84061 6.76452 3.97714 6.8549C4.11368 6.94529 4.13868 7.11644 4.04637 7.24528C3.89445 7.45874 3.69638 8.03758 3.78868 8.54527C3.88099 9.05296 4.03868 9.46449 4.89829 9.61641C5.44251 9.71256 5.49636 10.1241 5.53674 10.4241C5.58097 10.7549 5.63482 11.1645 6.15404 11.6145C6.35789 11.7914 6.62134 11.9241 6.89826 12.0645C7.03672 12.1337 7.17903 12.2068 7.32134 12.2895C7.5348 11.8433 7.71172 11.0779 7.69633 10.6222C7.67903 10.0568 7.47903 9.51834 7.12134 9.06257L7.04442 8.96449L7.06942 8.84527C7.11365 8.63373 7.13096 8.41835 7.12711 8.20489C7.01942 8.2395 6.87903 8.26258 6.74057 8.26258C6.15596 8.25681 5.70789 8.03566 5.40405 7.67989C4.87906 7.06452 5.00021 6.37991 5.02521 6.02222C5.05021 5.66453 5.07328 5.37992 5.11751 4.97415C5.18482 4.34724 5.26944 3.56648 5.20598 3.28956C5.00982 2.43572 4.56175 2.44918 4.39252 2.45495C4.22329 2.46072 4.08483 2.33764 4.07906 2.1838C4.07329 2.02803 4.20599 1.89919 4.37521 1.89342C4.79444 1.87995 5.53866 2.02803 5.80212 3.17033C5.88674 3.53378 5.80405 4.29339 5.72328 5.028C5.67905 5.43184 5.64251 5.72414 5.63482 6.04914C5.62712 6.37414 5.57328 6.97413 5.88674 7.33374C6.08289 7.55874 6.37327 7.68182 6.77904 7.70297C6.92711 7.71259 7.25018 7.56836 7.42326 7.27798C7.52518 7.05298 7.5771 6.80875 7.56749 6.5626C7.55595 6.19914 7.42134 5.85299 7.17711 5.56453L7.02903 5.38761L7.18288 5.21454C7.46941 4.89338 7.61941 4.48762 7.60595 4.07609C7.59441 3.72994 7.47134 3.39917 7.25018 3.12033L7.11365 2.94725L7.25788 2.77802C7.53095 2.45879 7.67518 2.06072 7.66172 1.65688C7.62903 0.660737 6.92903 -0.0142559 5.95981 0.016513C5.29059 0.0376666 4.78867 0.310741 4.50983 0.947272C3.83291 0.770351 3.03869 1.34919 2.86177 1.92419C2.67908 2.52033 2.79062 3.23379 3.55792 4.1357C3.67138 4.27031 3.79253 4.38954 3.91945 4.49339C4.04445 4.59531 4.05599 4.77416 3.94445 4.88954C3.88676 4.94915 3.80599 4.98184 3.72714 4.98377C3.65215 4.98569 3.57522 4.96261 3.51561 4.91262C3.36369 4.78762 3.21561 4.64339 3.081 4.48377C2.53293 3.83763 2.33677 3.11263 2.26754 2.62033C1.10986 3.39917 0.959866 4.82992 1.48678 5.61838C0.806022 6.61644 1.85793 7.84143 3.18677 7.77989Z" fill="#FAFAFA"/>
<path d="M6.60213 12.5566C6.29252 12.4297 5.99444 12.2508 5.73483 12.0239C5.05407 11.4355 4.98099 10.8682 4.93099 10.4932C4.89061 10.1874 4.87907 10.1855 4.78099 10.1682C4.28677 10.0816 3.94639 9.92395 3.70793 9.72395C3.4137 9.85087 3.12524 9.90664 2.85794 9.91626C2.07333 9.94126 1.47141 9.5778 1.43872 9.55665C1.29834 9.47011 1.2618 9.29703 1.35603 9.16627C1.45026 9.03742 1.63872 9.00281 1.77718 9.08742C1.80987 9.10857 2.54448 9.54126 3.35024 9.25665C3.27139 9.09319 3.11755 8.75089 3.12909 8.34897C1.84833 8.38166 0.665652 7.63744 0.613729 6.39514C-1.0401 8.78358 0.931033 11.0201 3.17716 11.6528C3.781 11.8239 4.21754 12.4182 4.22331 13.0393C4.22331 13.147 4.20984 13.3105 4.14254 13.4931C4.381 13.5374 4.66176 13.6181 4.94253 13.7451C4.8733 13.3201 4.92714 12.9643 4.93291 12.9393C4.95791 12.7855 5.11368 12.6797 5.27906 12.7008C5.44445 12.722 5.55983 12.8643 5.53675 13.0181C5.53483 13.0258 5.39829 13.9201 5.79829 14.3374C6.01175 14.5585 6.22521 14.9277 6.28675 15.3374C6.30982 15.4912 6.19252 15.6335 6.02713 15.6547C6.01559 15.6566 6.00406 15.6566 5.99444 15.6566C5.8406 15.6624 5.70598 15.5585 5.68483 15.4143C5.50406 14.2162 4.25215 14.0489 3.80985 14.0047C3.60985 14.2047 3.31755 14.3951 2.88486 14.5354C2.85409 14.5451 2.82332 14.5508 2.79255 14.5508C2.66371 14.5547 2.54063 14.4835 2.4964 14.3643C2.44063 14.2181 2.52332 14.0566 2.68294 14.0047C3.2887 13.8066 3.62139 13.4624 3.61754 13.0393C3.6137 12.6643 3.33678 12.2874 2.98678 12.1816C1.73487 11.8009 0.81565 11.1797 0.248348 10.3316C-0.486259 12.2201 1.10603 13.0201 2.12333 12.9028C2.28871 12.8855 2.44256 12.9931 2.46179 13.147C2.48102 13.3008 2.36179 13.4412 2.1964 13.4605C2.11371 13.4701 2.03294 13.4758 1.9541 13.4778C1.6041 13.4893 1.29257 13.4335 1.02334 13.347C0.782958 14.3893 1.86948 16.1277 3.85216 15.4124C4.10023 16.7796 6.15021 17.4104 7.33289 16.1123C8.49634 14.8374 7.68865 13.0047 6.60213 12.5566Z" fill="#FAFAFA"/>
<path d="M8.06748 3.91063C8.06941 3.97986 8.0771 4.05101 8.09056 4.11832C8.3271 3.81063 8.58863 3.55294 8.76171 3.41448C8.83094 3.35871 8.89824 3.30679 8.96171 3.25679C9.60208 2.7568 9.92516 2.5068 9.86939 1.66642C9.85977 1.51642 9.98285 1.38758 10.1444 1.37796C10.3098 1.36643 10.4463 1.48181 10.4559 1.63181C10.5309 2.74526 10.0309 3.13371 9.34055 3.67217C9.27709 3.72217 9.2117 3.77217 9.14247 3.82601C8.88478 4.03178 8.55594 4.40101 8.34633 4.75677L8.35017 4.76254L8.28864 4.88562C8.16941 5.12408 8.11364 5.37407 8.12325 5.63176C8.13095 5.87599 8.19633 6.11061 8.31748 6.33176L8.3771 6.43945L8.32902 6.55291C8.2021 6.85098 8.14248 7.16444 8.1521 7.48559C8.15979 7.74328 8.21941 7.9952 8.31556 8.23366C8.52902 7.96635 8.81171 7.73559 9.15401 7.56059C9.63862 7.31059 10.204 7.19329 10.6175 7.24521C11.2155 6.58368 12.0328 6.20484 12.9386 6.17022C12.9463 6.17022 12.954 6.17022 12.9617 6.17022C13.4828 6.15484 14.5059 6.29906 14.9597 6.90098C15.1578 5.81445 14.7616 4.92408 13.6117 4.69139C13.8347 3.79717 13.2597 2.96449 12.7251 2.67987C12.5059 3.30294 12.154 3.64332 11.7751 3.91448C11.9136 4.09717 12.2405 4.58947 12.2482 5.11254C12.2501 5.26061 12.1232 5.38369 11.9617 5.38754C11.9598 5.38754 11.9578 5.38754 11.9559 5.38754C11.7944 5.38946 11.6598 5.27023 11.6578 5.12023C11.654 4.751 11.3982 4.37024 11.2944 4.22986C10.8175 4.53947 10.3752 4.87216 10.0944 5.71061C10.0559 5.82407 9.94439 5.89907 9.82131 5.90292C9.79054 5.90484 9.75785 5.90099 9.72516 5.89138C9.56939 5.84715 9.48285 5.69523 9.53093 5.55292C9.89631 4.46639 10.5213 4.06447 11.0751 3.71063C11.5444 3.40871 11.9521 3.14718 12.179 2.46641L12.2251 2.23949C12.2521 2.10296 12.2636 1.96642 12.2597 1.83373C12.2271 0.787585 11.2771 -0.0335596 10.1425 0.0010554C9.00978 0.0395165 8.11556 0.918353 8.14825 1.9645C8.15594 2.22988 8.22517 2.48564 8.35017 2.72603L8.4194 2.85872L8.33479 2.98564C8.15018 3.26448 8.05787 3.58371 8.06748 3.91063Z" fill="#FAFAFA"/>
<path opacity="0.7" d="M14.5886 11.1817C14.5328 11.2298 14.4636 11.2548 14.3943 11.2586C14.3136 11.2605 14.2328 11.2336 14.1732 11.1759C14.0617 11.0682 14.0655 10.8971 14.1828 10.7913C14.3078 10.6798 14.5963 10.399 14.7943 10.1336L14.7905 10.1279L14.8963 9.96633C15.1386 9.59518 15.2597 9.17018 15.2463 8.73942C15.227 8.15865 14.9674 7.61827 14.5174 7.21251C14.4982 7.19328 14.479 7.17405 14.4578 7.15674L14.4366 7.13751C14.0751 6.8529 13.5328 6.69713 12.9636 6.71444C12.5078 6.73175 11.6424 6.88367 10.9694 7.7125L10.8367 7.87596L10.6309 7.80481C10.4463 7.74135 9.95593 7.7702 9.4444 8.03558C9.08094 8.22404 8.65402 8.58557 8.48671 9.19903C8.22133 10.1644 8.97902 10.7279 9.24632 10.9144C9.37709 11.0048 9.4367 11.1529 9.35786 11.2836C9.30594 11.3702 9.20978 11.4202 9.10978 11.424C9.05978 11.4259 9.00594 11.4144 8.95786 11.3913C8.73286 11.2779 8.4271 11.0413 8.19056 10.699C8.11941 10.9125 8.08287 11.1336 8.09056 11.3567C8.10402 11.7875 8.26364 12.199 8.55017 12.5413L8.63479 12.6432C8.88094 12.9124 9.22709 13.1759 9.49632 13.3798C9.62516 13.4759 9.73862 13.5644 9.82708 13.6374C10.6482 14.3278 10.4886 15.1701 10.2886 15.5182C10.2367 15.6086 10.1386 15.6605 10.0367 15.6643C9.9867 15.6663 9.9367 15.6567 9.89054 15.6336C9.74824 15.5643 9.69247 15.4009 9.76747 15.2682C9.80401 15.2009 10.1021 14.6047 9.43093 14.0394C9.35017 13.9701 9.24247 13.8913 9.12324 13.8009C8.91748 13.6451 8.67325 13.4586 8.44633 13.2528C8.43479 13.3317 8.4271 13.4105 8.43094 13.4913C8.43671 13.7009 8.49248 13.9009 8.5944 14.0894L8.66363 14.2182L8.58671 14.3432C8.42518 14.6086 8.34441 14.9086 8.35402 15.2086C8.38287 16.1297 9.2194 16.8528 10.2175 16.822C10.9155 16.8009 11.5271 16.4201 11.8155 15.8278L11.8655 15.722L11.9828 15.6817C12.3098 15.5701 12.5867 15.3586 12.7732 15.0913C12.5213 15.0643 12.2828 14.9874 12.0694 14.8605C11.6694 14.6201 11.4155 14.2317 11.3675 13.7932C11.3251 13.3913 11.4521 12.9413 11.5886 12.5913C11.3367 12.6721 11.0771 12.7144 10.8405 12.7221C10.5886 12.7298 10.3636 12.699 10.2021 12.6394C10.0521 12.5836 9.979 12.4259 10.0405 12.2855C10.1021 12.1471 10.2732 12.0798 10.4252 12.1355C10.754 12.2586 11.7924 12.1471 12.1482 11.5298C12.5136 10.8894 12.6097 10.5567 12.4732 10.2336C12.3424 9.92402 12.0867 9.81248 11.8963 9.77402C11.5463 9.70287 11.1405 9.82017 10.8405 10.0836C10.7213 10.1875 10.5367 10.1836 10.4252 10.074C10.3136 9.9644 10.3194 9.79325 10.4367 9.68941C10.8059 9.36826 11.2905 9.1971 11.7559 9.21441C11.8944 8.70865 11.7713 8.22211 11.7694 8.21635C11.7309 8.07019 11.829 7.92404 11.9867 7.8875C12.1424 7.85289 12.304 7.93942 12.3424 8.08558C12.3501 8.1125 12.5001 8.7048 12.329 9.33941C12.6444 9.47787 12.8905 9.72018 13.0232 10.0336C13.3059 10.7009 12.9674 11.3125 12.3905 12.2528C12.3886 12.2567 11.8905 13.1182 11.9559 13.7413C11.9848 14.0144 12.1405 14.2624 12.3924 14.4067C14.0136 15.3297 15.9386 12.7432 15.1405 10.624C14.8924 10.9086 14.6328 11.1432 14.5886 11.1817Z" fill="#FAFAFA"/>
</svg>
